#define Rain_width 10
#define Rain_height 12
static char Rain_bits[] = {
  0x40, 0x00, 0x40, 0x00, 0xA0, 0x00, 0xA4, 0x00, 0x14, 0x01, 0x1A, 0x01, 
  0xEA, 0x00, 0x51, 0x01, 0x51, 0x01, 0x2E, 0x02, 0x20, 0x02, 0xC0, 0x01, 
  };
