#define TrendDown_width 10
#define TrendDown_height 10
static char TrendDown_bits[] = {
  0x01, 0x00, 0x02, 0x00, 0x04, 0x00, 0x08, 0x00, 0x10, 0x00, 0x20, 0x02, 
  0x40, 0x02, 0x80, 0x02, 0x00, 0x03, 0xE0, 0x03, };
