#define TrendUp_width 10
#define TrendUp_height 10
static char TrendUp_bits[] = {
  0xE0, 0x03, 0x00, 0x03, 0x80, 0x02, 0x40, 0x02, 0x20, 0x02, 0x10, 0x00, 
  0x08, 0x00, 0x04, 0x00, 0x02, 0x00, 0x01, 0x00, };
