#define Wind_width 10
#define Wind_height 12
static char Wind_bits[] = {
  0x00, 0x00, 0x00, 0x00, 0xCC, 0x00, 0x12, 0x01, 0x08, 0x01, 0xFF, 0x00, 
  0x00, 0x00, 0xFC, 0x00, 0x00, 0x01, 0x00, 0x01, 0x80, 0x00, 0x00, 0x00, 
  };
